<svg xmlns="http://www.w3.org/2000/svg" version="1.1" xmlns:xlink="http://www.w3.org/1999/xlink" xmlns:svgjs="http://svgjs.com/svgjs" width="1000" height="600" preserveAspectRatio="none" viewBox="0 0 1000 600"><g mask="url(&quot;#SvgjsMask1064&quot;)" fill="none"><rect width="1000" height="600" x="0" y="0" fill="rgba(33, 35, 37, 1)"></rect><path d="M106.906,239.713C153.344,238.21,194.315,211.016,216.978,170.456C239.075,130.91,240.968,81.753,216.452,43.659C193.61,8.166,149.109,-1.196,106.906,-0.579C66.039,0.019,25.974,13.137,2.772,46.784C-24.12,85.782,-38.743,136.319,-16.243,178.005C7.131,221.311,57.721,241.305,106.906,239.713" fill="rgba(30, 215, 96, 1)" class="triangle-float2"></path><path d="M82.996,174.486C115.528,173.109,144.557,156.122,161.618,128.389C179.622,99.123,187.55,62.307,170.279,32.603C153.079,3.021,117.199,-5.781,82.996,-6.834C46.281,-7.964,5.671,-4.019,-14.118,26.927C-35.061,59.678,-29.437,103.097,-8.065,135.57C11.385,165.123,47.649,175.982,82.996,174.486" fill="rgba(30, 215, 96, 1)" class="triangle-float2"></path><path d="M-44.55 -35.45 a9.1 9.1 0 1 0 18.2 0 a9.1 9.1 0 1 0 -18.2 0z" fill="rgba(30, 215, 96, 1)" class="triangle-float1"></path><path d="M980.187,224.436C1023.476,222.697,1060.469,196.562,1082.415,159.208C1104.689,121.296,1112.631,74.494,1090.657,36.407C1068.673,-1.697,1024.135,-19.921,980.187,-17.98C939.481,-16.182,907.181,11.024,885.419,45.472C861.633,83.123,841.831,128.677,862.672,168.034C884.465,209.189,933.656,226.305,980.187,224.436" fill="rgba(30, 215, 96, 1)" class="triangle-float2"></path><path d="M804.61 -4.62 a70.77 70.77 0 1 0 141.54 0 a70.77 70.77 0 1 0 -141.54 0z" fill="rgba(30, 215, 96, 1)" class="triangle-float3"></path><path d="M967.53,206.071C1007.49,204.822,1037.566,174.13,1057.435,139.437C1077.155,105.005,1089.6,62.859,1068.957,28.972C1048.882,-3.982,1006.089,-9.624,967.53,-8.148C932.082,-6.791,898.108,6.549,878.72,36.256C857.297,69.082,849.167,110.644,867.333,145.379C886.729,182.465,925.698,207.379,967.53,206.071" fill="rgba(30, 215, 96, 1)" class="triangle-float2"></path><path d="M-100.45 500.45 a120.9 120.9 0 1 0 241.8 0 a120.9 120.9 0 1 0 -241.8 0z" fill="rgba(30, 215, 96, 1)" class="triangle-float3"></path><path d="M23.444,566.674C44.832,567.679,62.622,550.719,71.917,531.43C80.095,514.459,74.622,495.642,65.656,479.073C56.087,461.389,43.533,442.698,23.444,441.849C2.317,440.956,-16.251,456.176,-25.438,475.222C-33.596,492.136,-26.584,510.655,-17.732,527.217C-8.127,545.186,3.091,565.718,23.444,566.674" fill="rgba(30, 215, 96, 1)" class="triangle-float1"></path><path d="M-80.37 480.37 a80.74 80.74 0 1 0 161.48 0 a80.74 80.74 0 1 0 -161.48 0z" fill="rgba(30, 215, 96, 1)" class="triangle-float1"></path><path d="M926.611,588.674C951.641,588.115,979.198,585.865,992.427,564.609C1006.21,542.462,999.616,514.579,986.898,491.803C973.788,468.324,953.489,447.577,926.611,446.74C898.495,445.864,873.707,463.586,859.448,487.834C844.973,512.449,839.669,543.9,855.499,567.667C870.184,589.715,900.127,589.265,926.611,588.674" fill="rgba(30, 215, 96, 1)" class="triangle-float3"></path><path d="M828.26 451.74 a23.48 23.48 0 1 0 46.96 0 a23.48 23.48 0 1 0 -46.96 0z" fill="rgba(30, 215, 96, 1)" class="triangle-float3"></path><path d="M779.8 500.21 a120.41 120.41 0 1 0 240.82 0 a120.41 120.41 0 1 0 -240.82 0z" fill="rgba(30, 215, 96, 1)" class="triangle-float1"></path></g><defs><mask id="SvgjsMask1064"><rect width="1000" height="600" fill="#ffffff"></rect></mask><style>
            @keyframes float1 {
                0%{transform: translate(0, 0)}
                50%{transform: translate(-10px, 0)}
                100%{transform: translate(0, 0)}
            }

            .triangle-float1 {
                animation: float1 5s infinite;
            }

            @keyframes float2 {
                0%{transform: translate(0, 0)}
                50%{transform: translate(-5px, -5px)}
                100%{transform: translate(0, 0)}
            }

            .triangle-float2 {
                animation: float2 4s infinite;
            }

            @keyframes float3 {
                0%{transform: translate(0, 0)}
                50%{transform: translate(0, -10px)}
                100%{transform: translate(0, 0)}
            }

            .triangle-float3 {
                animation: float3 6s infinite;
            }
        </style></defs></svg>